<svg width="39" height="38" viewBox="0 0 39 38" fill="none" xmlns="http://www.w3.org/2000/svg">
<g id="Facebook logo" clip-path="url(#clip0_1122_2542)">
<path id="Vector" d="M36.4026 0H2.59742C2.04115 0 1.50766 0.220978 1.11432 0.614321C0.720978 1.00766 0.5 1.54115 0.5 2.09742L0.5 35.9026C0.5 36.4588 0.720978 36.9923 1.11432 37.3857C1.50766 37.779 2.04115 38 2.59742 38H20.7988V23.3047H15.8633V17.5527H20.7988V13.3223C20.7988 8.41418 23.7965 5.74156 28.1762 5.74156C30.2729 5.74156 32.0756 5.89742 32.5996 5.96422V11.0935H29.5789C27.1965 11.0935 26.7348 12.2253 26.7348 13.8871V17.5527H32.4304L31.6882 23.3047H26.7348V38H36.4011C36.6767 38.0002 36.9496 37.9461 37.2042 37.8408C37.4588 37.7355 37.6902 37.581 37.8852 37.3862C38.0801 37.1914 38.2347 36.9601 38.3402 36.7056C38.4457 36.451 38.5 36.1781 38.5 35.9026V2.09742C38.5 1.54115 38.279 1.00766 37.8857 0.614321C37.4923 0.220978 36.9588 0 36.4026 0Z" fill="#4267B2"/>
<path id="Vector_2" d="M26.7363 37.9999V23.3046H31.6904L32.4326 17.5526H26.7363V13.8892C26.7363 12.2274 27.1965 11.0956 29.5804 11.0956H32.5996V5.96484C32.0741 5.89508 30.2714 5.74219 28.1762 5.74219C23.7973 5.74219 20.7988 8.41406 20.7988 13.3229V17.5534H15.8633V23.3046H20.7988V37.9999H26.7363Z" fill="white"/>
</g>
<defs>
<clipPath id="clip0_1122_2542">
<rect width="38" height="38" fill="white" transform="translate(0.5)"/>
</clipPath>
</defs>
</svg>
