<svg width="42" height="41" viewBox="0 0 42 41" fill="none" xmlns="http://www.w3.org/2000/svg">
<g id="Instagram logo" clip-path="url(#clip0_1122_2535)">
<g id="Group">
<path id="Vector" d="M19.5059 0C11.5741 0 9.25397 0.00816422 8.80272 0.0452743C7.1751 0.181097 6.16201 0.437157 5.05837 0.987129C4.20782 1.40944 3.53688 1.89929 2.87559 2.58583C1.66953 3.83718 0.939212 5.37725 0.674992 7.20752C0.546593 8.09594 0.508741 8.27778 0.501319 12.8171C0.498351 14.3304 0.501319 16.3218 0.501319 18.9929C0.501319 26.9212 0.510226 29.239 0.548077 29.6896C0.679445 31.2742 0.928079 32.2709 1.45429 33.3612C2.45996 35.4483 4.38001 37.0151 6.64146 37.6C7.42447 37.8018 8.28987 37.9124 9.40019 37.9651C9.87074 37.9859 14.6668 38 19.4658 38C24.2648 38 29.063 37.9941 29.5225 37.9711C30.8087 37.9102 31.5553 37.81 32.3806 37.597C34.6569 37.0092 36.5421 35.4661 37.5678 33.3494C38.0836 32.285 38.3449 31.2504 38.4636 29.7489C38.4896 29.4216 38.5 24.201 38.5 18.9878C38.5 13.7738 38.4881 8.56279 38.4629 8.23547C38.3434 6.70951 38.0814 5.68304 37.5493 4.59868C37.1121 3.71101 36.6275 3.04748 35.9231 2.36985C34.6658 1.16897 33.1288 0.437899 31.297 0.173675C30.4086 0.0460165 30.232 0.00816422 25.6905 0H19.5059Z" fill="url(#paint0_radial_1122_2535)"/>
<path id="Vector_2" d="M19.5059 0C11.5741 0 9.25397 0.00816422 8.80272 0.0452743C7.1751 0.181097 6.16201 0.437157 5.05837 0.987129C4.20782 1.40944 3.53688 1.89929 2.87559 2.58583C1.66953 3.83718 0.939212 5.37725 0.674992 7.20752C0.546593 8.09594 0.508741 8.27778 0.501319 12.8171C0.498351 14.3304 0.501319 16.3218 0.501319 18.9929C0.501319 26.9212 0.510226 29.239 0.548077 29.6896C0.679445 31.2742 0.928079 32.2709 1.45429 33.3612C2.45996 35.4483 4.38001 37.0151 6.64146 37.6C7.42447 37.8018 8.28987 37.9124 9.40019 37.9651C9.87074 37.9859 14.6668 38 19.4658 38C24.2648 38 29.063 37.9941 29.5225 37.9711C30.8087 37.9102 31.5553 37.81 32.3806 37.597C34.6569 37.0092 36.5421 35.4661 37.5678 33.3494C38.0836 32.285 38.3449 31.2504 38.4636 29.7489C38.4896 29.4216 38.5 24.201 38.5 18.9878C38.5 13.7738 38.4881 8.56279 38.4629 8.23547C38.3434 6.70951 38.0814 5.68304 37.5493 4.59868C37.1121 3.71101 36.6275 3.04748 35.9231 2.36985C34.6658 1.16897 33.1288 0.437899 31.297 0.173675C30.4086 0.0460165 30.232 0.00816422 25.6905 0H19.5059Z" fill="url(#paint1_radial_1122_2535)"/>
<path id="Vector_3" d="M19.5059 0C11.5741 0 9.25397 0.00816422 8.80272 0.0452743C7.1751 0.181097 6.16201 0.437157 5.05837 0.987129C4.20782 1.40944 3.53688 1.89929 2.87559 2.58583C1.66953 3.83718 0.939212 5.37725 0.674992 7.20752C0.546593 8.09594 0.508741 8.27778 0.501319 12.8171C0.498351 14.3304 0.501319 16.3218 0.501319 18.9929C0.501319 26.9212 0.510226 29.239 0.548077 29.6896C0.679445 31.2742 0.928079 32.2709 1.45429 33.3612C2.45996 35.4483 4.38001 37.0151 6.64146 37.6C7.42447 37.8018 8.28987 37.9124 9.40019 37.9651C9.87074 37.9859 14.6668 38 19.4658 38C24.2648 38 29.063 37.9941 29.5225 37.9711C30.8087 37.9102 31.5553 37.81 32.3806 37.597C34.6569 37.0092 36.5421 35.4661 37.5678 33.3494C38.0836 32.285 38.3449 31.2504 38.4636 29.7489C38.4896 29.4216 38.5 24.201 38.5 18.9878C38.5 13.7738 38.4881 8.56279 38.4629 8.23547C38.3434 6.70951 38.0814 5.68304 37.5493 4.59868C37.1121 3.71101 36.6275 3.04748 35.9231 2.36985C34.6658 1.16897 33.1288 0.437899 31.297 0.173675C30.4086 0.0460165 30.232 0.00816422 25.6905 0H19.5059Z" fill="url(#paint2_radial_1122_2535)"/>
<path id="Vector_4" d="M19.5059 0C11.5741 0 9.25397 0.00816422 8.80272 0.0452743C7.1751 0.181097 6.16201 0.437157 5.05837 0.987129C4.20782 1.40944 3.53688 1.89929 2.87559 2.58583C1.66953 3.83718 0.939212 5.37725 0.674992 7.20752C0.546593 8.09594 0.508741 8.27778 0.501319 12.8171C0.498351 14.3304 0.501319 16.3218 0.501319 18.9929C0.501319 26.9212 0.510226 29.239 0.548077 29.6896C0.679445 31.2742 0.928079 32.2709 1.45429 33.3612C2.45996 35.4483 4.38001 37.0151 6.64146 37.6C7.42447 37.8018 8.28987 37.9124 9.40019 37.9651C9.87074 37.9859 14.6668 38 19.4658 38C24.2648 38 29.063 37.9941 29.5225 37.9711C30.8087 37.9102 31.5553 37.81 32.3806 37.597C34.6569 37.0092 36.5421 35.4661 37.5678 33.3494C38.0836 32.285 38.3449 31.2504 38.4636 29.7489C38.4896 29.4216 38.5 24.201 38.5 18.9878C38.5 13.7738 38.4881 8.56279 38.4629 8.23547C38.3434 6.70951 38.0814 5.68304 37.5493 4.59868C37.1121 3.71101 36.6275 3.04748 35.9231 2.36985C34.6658 1.16897 33.1288 0.437899 31.297 0.173675C30.4086 0.0460165 30.232 0.00816422 25.6905 0H19.5059Z" fill="url(#paint3_radial_1122_2535)"/>
<path id="Vector_5" d="M19.5073 4.87891C15.6701 4.87891 15.1885 4.89598 13.6818 4.96426C12.1774 5.03328 11.1509 5.27079 10.2529 5.62037C9.32366 5.98108 8.53545 6.46351 7.75022 7.24802C6.96424 8.03252 6.48181 8.82074 6.11962 9.74849C5.76931 10.6466 5.53106 11.673 5.46353 13.1752C5.39599 14.6812 5.37817 15.1629 5.37817 18.9971C5.37817 22.8313 5.39524 23.3115 5.46353 24.8174C5.53255 26.3204 5.77079 27.3461 6.11962 28.2442C6.48107 29.1727 6.96349 29.9601 7.74947 30.7454C8.53471 31.5306 9.32292 32.0146 10.2514 32.3753C11.1502 32.7241 12.1774 32.9623 13.6811 33.0314C15.1885 33.0997 15.6694 33.1167 19.5065 33.1167C23.3436 33.1167 23.8238 33.0997 25.3312 33.0314C26.8357 32.9623 27.8636 32.7248 28.7624 32.3753C29.6916 32.0146 30.4783 31.5314 31.2636 30.7461C32.0495 29.9616 32.532 29.1734 32.8942 28.2457C33.2415 27.3476 33.4797 26.3211 33.5503 24.8189C33.6178 23.313 33.6356 22.8328 33.6356 18.9986C33.6356 15.1643 33.6178 14.6827 33.5503 13.1767C33.4797 11.6738 33.2415 10.648 32.8942 9.74998C32.532 8.82148 32.0495 8.03401 31.2636 7.24876C30.4776 6.46351 29.6916 5.98108 28.7616 5.62037C27.8606 5.27153 26.8334 5.03328 25.3297 4.96426C23.8224 4.89598 23.3429 4.87891 19.5043 4.87891H19.5073ZM18.2403 7.42317C18.6166 7.42243 19.036 7.42317 19.508 7.42317C23.2806 7.42317 23.7274 7.43653 25.2169 7.50408C26.5944 7.56716 27.3418 7.79725 27.8398 7.99022C28.4989 8.24628 28.9694 8.55206 29.4637 9.04637C29.958 9.54068 30.2646 10.0112 30.5214 10.6703C30.7151 11.1676 30.9452 11.9142 31.0082 13.291C31.0758 14.7791 31.0906 15.2267 31.0906 18.9941C31.0906 22.7623 31.0758 23.2091 31.0082 24.6972C30.9452 26.074 30.7151 26.8206 30.5214 27.3179C30.2653 27.977 29.9588 28.446 29.4637 28.9396C28.9694 29.4339 28.4996 29.7397 27.8398 29.9958C27.3426 30.1902 26.5944 30.4196 25.2169 30.4819C23.7274 30.5494 23.2798 30.5643 19.508 30.5643C15.7354 30.5643 15.2879 30.5494 13.7991 30.4819C12.4216 30.4181 11.6742 30.1887 11.1754 29.995C10.5164 29.739 10.0451 29.4332 9.55077 28.9389C9.05647 28.4446 8.74995 27.9755 8.49315 27.3164C8.29944 26.8191 8.06936 26.0725 8.00627 24.6957C7.93873 23.2076 7.92537 22.76 7.92537 18.9904C7.92537 15.22 7.93873 14.7754 8.00627 13.2873C8.06936 11.9105 8.29944 11.1639 8.49315 10.6659C8.7492 10.0068 9.05573 9.53622 9.55077 9.04192C10.0451 8.54761 10.5164 8.24182 11.1754 7.98502C11.6734 7.79056 12.4216 7.56122 13.7991 7.49814C15.1024 7.4395 15.6078 7.42169 18.2411 7.41872L18.2403 7.42317ZM27.0494 9.76779C26.1135 9.76779 25.3542 10.5256 25.3542 11.4615C25.3542 12.3967 26.1135 13.1559 27.0494 13.1559C27.9853 13.1559 28.7446 12.3974 28.7446 11.4615C28.7446 10.5256 27.9853 9.76705 27.0494 9.76779ZM19.5073 11.7472C15.5002 11.7472 12.2516 14.9936 12.2516 18.9978C12.2516 23.002 15.5002 26.2469 19.5073 26.2469C23.5143 26.2469 26.7614 23.002 26.7614 18.9978C26.7614 14.9936 23.5143 11.7472 19.5073 11.7472ZM19.5073 14.2915C22.1079 14.2915 24.2172 16.3986 24.2172 18.9978C24.2172 21.597 22.1086 23.7041 19.5073 23.7041C16.9059 23.7041 14.7973 21.597 14.7973 18.9978C14.7981 16.3979 16.9066 14.2915 19.5073 14.2915Z" fill="white"/>
</g>
</g>
<defs>
<radialGradient id="paint0_radial_1122_2535" cx="0" cy="0" r="1" gradientUnits="userSpaceOnUse" gradientTransform="translate(37.2732 17.8117) rotate(164.25) scale(24.2801 17.4928)">
<stop stop-color="#FF005F"/>
<stop offset="1" stop-color="#FC01D8"/>
</radialGradient>
<radialGradient id="paint1_radial_1122_2535" cx="0" cy="0" r="1" gradientUnits="userSpaceOnUse" gradientTransform="translate(10.5934 40.9276) rotate(-90) scale(30.333 32.1822)">
<stop stop-color="#FFCC00"/>
<stop offset="0.1242" stop-color="#FFCC00"/>
<stop offset="0.5672" stop-color="#FE4A05"/>
<stop offset="0.6942" stop-color="#FF0F3F"/>
<stop offset="1" stop-color="#FE0657" stop-opacity="0"/>
</radialGradient>
<radialGradient id="paint2_radial_1122_2535" cx="0" cy="0" r="1" gradientUnits="userSpaceOnUse" gradientTransform="translate(20.4598 37.4647) rotate(-59.8701) scale(12.5429 16.3294)">
<stop stop-color="#FFCC00"/>
<stop offset="1" stop-color="#FFCC00" stop-opacity="0"/>
</radialGradient>
<radialGradient id="paint3_radial_1122_2535" cx="0" cy="0" r="1" gradientUnits="userSpaceOnUse" gradientTransform="translate(5.65573 1.54862) rotate(164.274) scale(24.0106 8.18057)">
<stop stop-color="#780CFF"/>
<stop offset="1" stop-color="#820BFF" stop-opacity="0"/>
</radialGradient>
<clipPath id="clip0_1122_2535">
<rect width="41" height="41" fill="white" transform="translate(0.5)"/>
</clipPath>
</defs>
</svg>
