<svg width="39" height="38" viewBox="0 0 39 38" fill="none" xmlns="http://www.w3.org/2000/svg">
<g id="KAKAO logo" clip-path="url(#clip0_1122_2527)">
<g id="surface1">
<path id="Vector" d="M38.5 35.0312C38.5 36.671 37.171 38 35.5312 38H3.46875C1.82898 38 0.5 36.671 0.5 35.0312V2.96875C0.5 1.32898 1.82898 0 3.46875 0H35.5312C37.171 0 38.5 1.32898 38.5 2.96875" fill="#FFE812"/>
<path id="Vector_2" d="M19.5 5.34375C10.9741 5.34375 4.0625 10.7936 4.0625 17.5156C4.0625 21.8615 6.95181 25.675 11.2982 27.8286C11.0623 28.6438 9.77908 33.0749 9.72806 33.4228C9.72806 33.4228 9.69733 33.6843 9.86664 33.784C10.0359 33.8838 10.2348 33.8066 10.2348 33.8066C10.7207 33.7388 15.8673 30.1235 16.758 29.4962C17.648 29.622 18.5641 29.6875 19.5 29.6875C28.0259 29.6875 34.9375 24.2382 34.9375 17.5156C34.9375 10.7936 28.0259 5.34375 19.5 5.34375Z" fill="black"/>
<path id="Vector_3" d="M10.9648 21.7646C10.4737 21.7646 10.0742 21.3831 10.0742 20.914V15.623H8.68436C8.20251 15.623 7.81055 15.2317 7.81055 14.751C7.81055 14.2703 8.20251 13.8789 8.68436 13.8789H13.2453C13.7272 13.8789 14.1191 14.2703 14.1191 14.751C14.1191 15.2317 13.7272 15.623 13.2453 15.623H11.8555V20.914C11.8555 21.3831 11.456 21.7646 10.9648 21.7646Z" fill="#FFE812"/>
<path id="Vector_4" d="M17.1238 18.6277L16.2343 16.1003L15.3448 18.6277H17.1238ZM18.7745 21.7531C18.4029 21.7531 18.1188 21.6023 18.0329 21.3593L17.5923 20.2049H14.8763L14.4351 21.3599C14.3498 21.6023 14.0657 21.7531 13.6946 21.7531C13.4981 21.7531 13.3021 21.7107 13.1281 21.6301C12.8829 21.5171 12.6469 21.2051 12.9171 20.3655L15.0474 14.7579C15.1976 14.3318 15.6533 13.8922 16.2337 13.8789C16.8153 13.8922 17.271 14.3318 17.4212 14.7591L19.5509 20.3638C19.8223 21.2057 19.5857 21.5176 19.3405 21.6301C19.1659 21.7107 18.9705 21.7531 18.7745 21.7531Z" fill="#FFE812"/>
<path id="Vector_5" d="M20.9844 21.6348C20.5135 21.6348 20.1309 21.2683 20.1309 20.8184V14.7695C20.1309 14.2784 20.5385 13.8789 21.04 13.8789C21.5416 13.8789 21.9492 14.2784 21.9492 14.7695V20.002H23.8418C24.3126 20.002 24.6953 20.3684 24.6953 20.8184C24.6953 21.2683 24.3126 21.6348 23.8418 21.6348" fill="#FFE812"/>
<path id="Vector_6" d="M25.9326 21.7531C25.4409 21.7531 25.042 21.3535 25.042 20.8624V14.7695C25.042 14.2784 25.4409 13.8789 25.9326 13.8789C26.4237 13.8789 26.8232 14.2784 26.8232 14.7695V16.6836L29.3078 14.199C29.436 14.0714 29.6111 14.0007 29.8018 14.0007C30.0239 14.0007 30.2472 14.0963 30.4147 14.2639C30.5707 14.4199 30.6641 14.6199 30.6768 14.8281C30.6896 15.0386 30.6194 15.2311 30.4803 15.3708L28.4503 17.4002L30.6426 20.304C30.7858 20.4942 30.8467 20.7285 30.8137 20.9639C30.7806 21.1999 30.6583 21.4086 30.4681 21.5513C30.3121 21.669 30.1271 21.7316 29.9323 21.7316C29.6499 21.7316 29.3907 21.6023 29.2209 21.3773L27.1323 18.6098L26.8232 18.9188V20.8618C26.8232 21.3535 26.4237 21.7531 25.9326 21.7531Z" fill="#FFE812"/>
</g>
</g>
<defs>
<clipPath id="clip0_1122_2527">
<rect width="38" height="38" fill="white" transform="translate(0.5)"/>
</clipPath>
</defs>
</svg>
