<svg width="42" height="41" viewBox="0 0 42 41" fill="none" xmlns="http://www.w3.org/2000/svg">
<g id="share logo">
<path id="Vector" d="M31.2357 27.5811C29.9509 27.5811 28.7514 28.0076 27.8948 28.8606L15.6463 21.7801C15.7321 21.3535 15.8178 21.0119 15.8178 20.5854C15.8178 20.1588 15.7321 19.8173 15.6463 19.3908L27.7242 12.3959C28.666 13.249 29.8655 13.7605 31.2357 13.7605C34.0621 13.7605 36.375 11.457 36.375 8.64195C36.375 5.82704 34.0621 3.52344 31.2357 3.52344C28.4092 3.52344 26.0964 5.82704 26.0964 8.64203C26.0964 9.06861 26.1817 9.41022 26.2679 9.83672L14.1905 16.8315C13.2482 15.9784 12.0491 15.4669 10.6786 15.4669C7.85213 15.4669 5.625 17.7705 5.625 20.5855C5.625 23.4005 7.93742 25.7041 10.7643 25.7041C12.1348 25.7041 13.3339 25.1925 14.2762 24.3394L26.4393 31.42C26.3531 31.7607 26.2679 32.1024 26.2679 32.5289C26.2679 35.259 28.4945 37.4766 31.2357 37.4766C33.9767 37.4766 36.2034 35.259 36.2034 32.5289C36.2035 29.7987 33.9768 27.5811 31.2357 27.5811Z" fill="black"/>
</g>
</svg>
