<svg width="22" height="22" viewBox="0 0 22 22" fill="none" xmlns="http://www.w3.org/2000/svg">
<g id="&#240;&#159;&#166;&#134; icon &#34;arrow circle right&#34;">
<path id="Vector" d="M11 0C4.939 0 0 4.939 0 11C0 17.061 4.939 22 11 22C17.061 22 22 17.061 22 11C22 4.939 17.061 0 11 0ZM14.069 11.583L10.186 15.466C10.021 15.631 9.812 15.708 9.603 15.708C9.394 15.708 9.185 15.631 9.02 15.466C8.701 15.147 8.701 14.619 9.02 14.3L12.32 11L9.02 7.7C8.701 7.381 8.701 6.853 9.02 6.534C9.339 6.215 9.867 6.215 10.186 6.534L14.069 10.417C14.399 10.736 14.399 11.264 14.069 11.583Z" fill="white" fill-opacity="0.8"/>
</g>
</svg>
