<svg width="22" height="23" viewBox="0 0 22 23" fill="none" xmlns="http://www.w3.org/2000/svg">
<g id="&#240;&#159;&#166;&#134; icon &#34;arrow circle right&#34;">
<path id="Vector" d="M11 0.5C17.061 0.5 22 5.439 22 11.5C22 17.561 17.061 22.5 11 22.5C4.939 22.5 0 17.561 0 11.5C0 5.439 4.939 0.5 11 0.5ZM7.931 12.083L11.814 15.966C11.979 16.131 12.188 16.208 12.397 16.208C12.606 16.208 12.815 16.131 12.98 15.966C13.299 15.647 13.299 15.119 12.98 14.8L9.68 11.5L12.98 8.2C13.299 7.881 13.299 7.353 12.98 7.034C12.661 6.715 12.133 6.715 11.814 7.034L7.931 10.917C7.601 11.236 7.601 11.764 7.931 12.083Z" fill="white" fill-opacity="0.8"/>
</g>
</svg>
